<?xml version="1.0" encoding="utf-8"?>
<!-- Generator: Adobe Illustrator 16.0.0, SVG Export Plug-In . SVG Version: 6.00 Build 0)  -->
<!DOCTYPE svg PUBLIC "-//W3C//DTD SVG 1.1//EN" "http://www.w3.org/Graphics/SVG/1.1/DTD/svg11.dtd">
<svg version="1.1" id="Layer_1" xmlns="http://www.w3.org/2000/svg" xmlns:xlink="http://www.w3.org/1999/xlink" x="0px" y="0px"
	 width="168px" height="48px" viewBox="0 0 168 48" enable-background="new 0 0 168 48" xml:space="preserve">
<g>
	<g>
		
			<linearGradient id="SVGID_1_" gradientUnits="userSpaceOnUse" x1="-60.7886" y1="527.7549" x2="-60.7886" y2="486.2012" gradientTransform="matrix(1 0 0 1 75.6401 -482.9834)">
			<stop  offset="0" style="stop-color:#DBDDDE"/>
			<stop  offset="1" style="stop-color:#898C90"/>
		</linearGradient>
		<path fill="url(#SVGID_1_)" d="M26.089,34.786c-0.809-3.471-2.792-6.065-4.473-9.125c-3.764-6.839-3.729-15.666,0.25-22.443
			C11.393,4.355,3.239,13.221,3.239,23.997c0,10.701,8.042,19.516,18.413,20.752c0.087,0.008,0.174,0.022,0.263,0.022
			c1.917,0,3.526-1.256,4.089-2.989C26.576,39.498,26.626,37.089,26.089,34.786z M18.006,38.67c-1.722,0-3.116-1.396-3.116-3.118
			c0-1.717,1.394-3.114,3.116-3.114c1.717,0,3.11,1.397,3.11,3.114C21.116,37.273,19.723,38.67,18.006,38.67z"/>
		
			<linearGradient id="SVGID_2_" gradientUnits="userSpaceOnUse" x1="23.189" y1="510.7139" x2="23.189" y2="504.9492" gradientTransform="matrix(1 0 0 1 75.6401 -482.9834)">
			<stop  offset="0" style="stop-color:#DBDDDE"/>
			<stop  offset="1" style="stop-color:#898C90"/>
		</linearGradient>
		<path fill="url(#SVGID_2_)" d="M98.799,27.73c-1.564,0-2.853-1.263-2.853-2.884c-0.029-1.596,1.288-2.882,2.879-2.882
			c1.594,0,2.887,1.259,2.887,2.882c0,1.594-1.293,2.884-2.887,2.884H98.799z"/>
		
			<linearGradient id="SVGID_3_" gradientUnits="userSpaceOnUse" x1="47.564" y1="510.7139" x2="47.564" y2="504.9492" gradientTransform="matrix(1 0 0 1 75.6401 -482.9834)">
			<stop  offset="0" style="stop-color:#DBDDDE"/>
			<stop  offset="1" style="stop-color:#898C90"/>
		</linearGradient>
		<path fill="url(#SVGID_3_)" d="M123.173,27.73c-1.562,0-2.85-1.263-2.85-2.884c-0.033-1.596,1.288-2.882,2.88-2.882
			c1.593,0,2.881,1.259,2.881,2.882c0,1.594-1.288,2.884-2.881,2.884H123.173z"/>
	</g>
	<g>
		<g>
			
				<linearGradient id="SVGID_4_" gradientUnits="userSpaceOnUse" x1="-51.6387" y1="482.9824" x2="-51.6387" y2="530.9834" gradientTransform="matrix(1 0 0 1 75.6401 -482.9834)">
				<stop  offset="0" style="stop-color:#0D3C51"/>
				<stop  offset="0.256" style="stop-color:#096171"/>
				<stop  offset="0.586" style="stop-color:#048B96"/>
				<stop  offset="0.8454" style="stop-color:#01A5AD"/>
				<stop  offset="1" style="stop-color:#00AFB5"/>
			</linearGradient>
			<path fill="url(#SVGID_4_)" d="M46.972,23.997c0,12.67-10.301,22.972-22.972,22.972c-12.661,0-22.967-10.297-22.967-22.972
				c0-12.665,10.305-22.97,22.967-22.97C36.669,1.028,46.972,11.333,46.972,23.997z M24,0C10.765,0,0,10.768,0,23.997
				C0,37.23,10.765,48,24,48c13.234,0,24.003-10.764,24.003-24.003C48.003,10.768,37.234,0,24,0z"/>
		</g>
		
			<linearGradient id="SVGID_5_" gradientUnits="userSpaceOnUse" x1="-42.894" y1="486.0742" x2="-42.894" y2="527.7217" gradientTransform="matrix(1 0 0 1 75.6401 -482.9834)">
			<stop  offset="0" style="stop-color:#0D3C51"/>
			<stop  offset="0.256" style="stop-color:#096171"/>
			<stop  offset="0.586" style="stop-color:#048B96"/>
			<stop  offset="0.8454" style="stop-color:#01A5AD"/>
			<stop  offset="1" style="stop-color:#00AFB5"/>
		</linearGradient>
		<path fill="url(#SVGID_5_)" d="M45.05,23.997c0-11.547-9.354-20.906-20.901-20.906c-0.079,0-0.157,0.007-0.236,0.007
			c-1.483,2.254-2.509,4.977-3.021,7.573c-0.57,2.886-0.646,5.877,0.052,8.751c0.423,1.762,1.054,3.478,1.932,5.069
			c0.842,1.538,1.912,2.926,2.74,4.47c2.47,4.608,3.391,10.006,1.46,14.991c-0.101,0.265-0.203,0.52-0.32,0.785
			c0.494-0.057,0.977-0.146,1.455-0.238c1.033-1.373,1.514-3.156,1.839-4.826c0.389-1.96,0.406-3.968-0.049-5.917
			c-0.607-2.587-1.739-5.193-2.758-7.594c-2.455-5.779-1.832-13.07,1.438-18.531l0.029-0.039c0.557-0.924,1.894,0.077,1.34,0.997
			c-1.187,1.981-2.011,4.641-2.321,6.91c-0.316,2.308-0.309,4.677,0.254,6.951c0.652,2.671,1.604,5.271,2.622,7.773
			c1.717,4.199,2.222,9.535,0.027,13.643c0.575-0.19,1.143-0.412,1.701-0.644c0.575-0.896,1.041-1.919,1.346-2.872
			c0.541-1.703,0.567-3.433,0.345-5.206c-0.302-2.351-1.146-4.456-1.787-6.702c-1.53-5.358-0.524-11.756,2.916-16.235
			c0.654-0.855,2.027,0.101,1.365,0.957c-1.21,1.587-2.072,3.547-2.62,5.45c-0.598,2.071-0.886,4.282-0.64,6.434
			c0.286,2.415,1.102,4.567,1.784,6.868c0.947,3.191,1.039,6.867-0.16,10C40.97,38.273,45.05,31.618,45.05,23.997z"/>
		
			<linearGradient id="SVGID_6_" gradientUnits="userSpaceOnUse" x1="-1.0435" y1="496.6914" x2="-1.0435" y2="517.2725" gradientTransform="matrix(1 0 0 1 75.6401 -482.9834)">
			<stop  offset="0" style="stop-color:#0D3C51"/>
			<stop  offset="0.256" style="stop-color:#096171"/>
			<stop  offset="0.586" style="stop-color:#048B96"/>
			<stop  offset="0.8454" style="stop-color:#01A5AD"/>
			<stop  offset="1" style="stop-color:#00AFB5"/>
		</linearGradient>
		<path fill="url(#SVGID_6_)" d="M76.913,34.289H72.28V13.708h4.633V34.289z"/>
		
			<linearGradient id="SVGID_7_" gradientUnits="userSpaceOnUse" x1="11.4683" y1="496.4355" x2="11.4683" y2="517.5342" gradientTransform="matrix(1 0 0 1 75.6401 -482.9834)">
			<stop  offset="0" style="stop-color:#0D3C51"/>
			<stop  offset="0.256" style="stop-color:#096171"/>
			<stop  offset="0.586" style="stop-color:#048B96"/>
			<stop  offset="0.8454" style="stop-color:#01A5AD"/>
			<stop  offset="1" style="stop-color:#00AFB5"/>
		</linearGradient>
		<path fill="url(#SVGID_7_)" d="M94.026,28.169c0,4.257-2.606,6.382-7.814,6.382c-2.333,0-4.342-0.347-6.021-1.043l0.606-3.198
			c1.48,0.704,3.014,1.051,4.602,1.051c1.227,0,2.099-0.126,2.636-0.385c0.805-0.386,1.208-1.115,1.208-2.198
			c0-0.858-0.506-1.604-1.51-2.245c-0.467-0.296-1.334-0.694-2.607-1.205c-1.606-0.646-2.776-1.405-3.515-2.282
			c-0.848-1.017-1.269-2.341-1.269-3.962c0-1.883,0.83-3.331,2.49-4.348c1.399-0.854,3.11-1.283,5.128-1.283
			c2.135,0,3.89,0.275,5.265,0.827L92.73,17.28c-1.722-0.429-3.224-0.642-4.503-0.642c-2.319,0-3.473,0.68-3.473,2.034
			c0,0.912,0.488,1.65,1.464,2.219c0.115,0.075,1.019,0.417,2.703,1.03C92.324,23.171,94.026,25.252,94.026,28.169z"/>
		
			<linearGradient id="SVGID_8_" gradientUnits="userSpaceOnUse" x1="72.7085" y1="496.6914" x2="72.7085" y2="517.2725" gradientTransform="matrix(1 0 0 1 75.6401 -482.9834)">
			<stop  offset="0" style="stop-color:#0D3C51"/>
			<stop  offset="0.256" style="stop-color:#096171"/>
			<stop  offset="0.586" style="stop-color:#048B96"/>
			<stop  offset="0.8454" style="stop-color:#01A5AD"/>
			<stop  offset="1" style="stop-color:#00AFB5"/>
		</linearGradient>
		<path fill="url(#SVGID_8_)" d="M150.667,34.289h-4.636V13.708h4.636V34.289z"/>
		
			<linearGradient id="SVGID_9_" gradientUnits="userSpaceOnUse" x1="85.2139" y1="496.4355" x2="85.2139" y2="517.5342" gradientTransform="matrix(1 0 0 1 75.6401 -482.9834)">
			<stop  offset="0" style="stop-color:#0D3C51"/>
			<stop  offset="0.256" style="stop-color:#096171"/>
			<stop  offset="0.586" style="stop-color:#048B96"/>
			<stop  offset="0.8454" style="stop-color:#01A5AD"/>
			<stop  offset="1" style="stop-color:#00AFB5"/>
		</linearGradient>
		<path fill="url(#SVGID_9_)" d="M167.771,28.169c0,4.257-2.607,6.382-7.812,6.382c-2.34,0-4.343-0.347-6.022-1.043l0.604-3.198
			c1.479,0.704,3.014,1.051,4.604,1.051c1.222,0,2.104-0.126,2.637-0.385c0.8-0.386,1.204-1.115,1.204-2.198
			c0-0.858-0.503-1.604-1.508-2.245c-0.467-0.296-1.333-0.694-2.609-1.205c-1.604-0.646-2.772-1.405-3.514-2.282
			c-0.848-1.017-1.271-2.341-1.271-3.962c0-1.883,0.831-3.331,2.488-4.348c1.404-0.854,3.113-1.283,5.13-1.283
			c2.133,0,3.886,0.275,5.264,0.827l-0.494,3.001c-1.717-0.429-3.222-0.642-4.499-0.642c-2.317,0-3.475,0.68-3.475,2.034
			c0,0.912,0.489,1.65,1.467,2.219c0.118,0.075,1.018,0.417,2.708,1.03C166.072,23.171,167.771,25.252,167.771,28.169z"/>
		
			<linearGradient id="SVGID_10_" gradientUnits="userSpaceOnUse" x1="59.6221" y1="496.6914" x2="59.6221" y2="517.2754" gradientTransform="matrix(1 0 0 1 75.6401 -482.9834)">
			<stop  offset="0" style="stop-color:#0D3C51"/>
			<stop  offset="0.256" style="stop-color:#096171"/>
			<stop  offset="0.586" style="stop-color:#048B96"/>
			<stop  offset="0.8454" style="stop-color:#01A5AD"/>
			<stop  offset="1" style="stop-color:#00AFB5"/>
		</linearGradient>
		<path fill="url(#SVGID_10_)" d="M140.306,13.708l-3.608,11.519h-0.014c-0.092,0.305-0.369,0.526-0.708,0.526
			c-0.296,0-0.549-0.172-0.667-0.422l-3.688-11.624h-5.185l6.781,20.583h3.901l6.97-20.583H140.306L140.306,13.708z"/>
		
			<linearGradient id="SVGID_11_" gradientUnits="userSpaceOnUse" x1="-14.1265" y1="496.6914" x2="-14.1265" y2="517.2754" gradientTransform="matrix(1 0 0 1 75.6401 -482.9834)">
			<stop  offset="0" style="stop-color:#0D3C51"/>
			<stop  offset="0.256" style="stop-color:#096171"/>
			<stop  offset="0.586" style="stop-color:#048B96"/>
			<stop  offset="0.8454" style="stop-color:#01A5AD"/>
			<stop  offset="1" style="stop-color:#00AFB5"/>
		</linearGradient>
		<path fill="url(#SVGID_11_)" d="M66.562,13.708l-3.61,11.519h-0.009c-0.093,0.305-0.372,0.526-0.709,0.526
			c-0.325,0-0.596-0.209-0.697-0.501l-3.664-11.544h-5.186l6.785,20.583h3.898l6.97-20.583H66.562z"/>
		
			<linearGradient id="SVGID_12_" gradientUnits="userSpaceOnUse" x1="35.8379" y1="496.6914" x2="35.8379" y2="517.2744" gradientTransform="matrix(1 0 0 1 75.6401 -482.9834)">
			<stop  offset="0" style="stop-color:#0D3C51"/>
			<stop  offset="0.256" style="stop-color:#096171"/>
			<stop  offset="0.586" style="stop-color:#048B96"/>
			<stop  offset="0.8454" style="stop-color:#01A5AD"/>
			<stop  offset="1" style="stop-color:#00AFB5"/>
		</linearGradient>
		<path fill="url(#SVGID_12_)" d="M121.279,32.047c-0.003-0.404-0.335-0.729-0.736-0.729c-0.01,0-0.019,0-0.025,0.005v-0.008h-1.482
			l-6.101-17.607h-7.511v2.204h0.003c0,0.007,0,0.011-0.003,0.019v0.021c0.007,0.405,0.334,0.729,0.737,0.729
			c0.01,0,0.021-0.001,0.028-0.001v0.004h1.402l-5.917,17.607h3.766l1.555-4.934h6.787l1.539,4.934h5.961V32.09h-0.003
			c0.003-0.007,0.003-0.014,0.003-0.024L121.279,32.047L121.279,32.047z M108.872,26.389c-0.388-0.018-0.703-0.338-0.703-0.73
			c0-0.09,0.019-0.17,0.043-0.239l1.394-4.417l0,0c0.089-0.307,0.369-0.534,0.705-0.534c0.338,0,0.618,0.227,0.708,0.534h0.006
			l1.802,5.391h-3.954V26.389z"/>
	</g>
</g>
</svg>
